<svg xmlns="http://www.w3.org/2000/svg" width="16" height="16" viewBox="0 0 16 16">
  <g fill="none" fill-rule="evenodd">
    <path fill="#9AA7B0" fill-opacity=".6" d="M15,8 C15,11.866 11.866,15 8,15 C4.134,15 1,11.866 1,8 C1,4.134 4.134,1 8,1 C11.866,1 15,4.134 15,8"/>
    <path fill="#231F20" fill-opacity=".7" d="M1.5,6 L2.5,6 L2.5,5 L1.5,5 L1.5,6 Z M2,0 C0.895,0 0,0.895 0,2 L1,2 C1,1.45 1.45,1 2,1 C2.55,1 3,1.45 3,2 C3,3 1.5,2.875 1.5,4.5 L2.5,4.5 C2.5,3.375 4,3.25 4,2 C4,0.895 3.105,0 2,0 Z" transform="translate(6 5)"/>
  </g>
</svg>
