<svg xmlns="http://www.w3.org/2000/svg" width="16" height="16" viewBox="0 0 16 16">
  <g fill="none" fill-rule="evenodd">
    <path fill="#B99BF8" fill-opacity=".6" d="M12.0693,15 L3.9303,15 C2.3193,15 1.0003,13.681 1.0003,12.069 L1.0003,3.931 C1.0003,2.319 2.3193,1 3.9303,1 L12.0693,1 C13.6803,1 15.0003,2.319 15.0003,3.931 L15.0003,12.069 C15.0003,13.681 13.6803,15 12.0693,15"/>
    <path fill="#231F20" fill-opacity=".7" d="M7.055,5.96 L7.055,10.04 L7.812,10.04 C9.072,10.04 9.895,9.191 9.895,8.018 L9.895,8 C9.895,6.826 9.072,5.96 7.812,5.96 L7.055,5.96 Z M6,5 L7.812,5 C9.698,5 11,6.295 11,7.982 L11,8 C11,9.689 9.698,11 7.812,11 L6,11 L6,5 Z"/>
  </g>
</svg>
