<svg version="1.0" xmlns="http://www.w3.org/2000/svg"
 width="200.000000pt" height="200.000000pt" viewBox="0 0 200.000000 200.000000"
 preserveAspectRatio="xMidYMid meet">
<g transform="translate(0.000000,200.000000) scale(0.100000,-0.100000)"
fill="#000000" stroke="none">
<path fill="#ff6965" stroke="none" d="M1051 1613 c28 -43 104 -154 167 -248
64 -93 128 -188 144 -209 15 -21 28 -43 28 -48 0 -4 -178 -8 -395 -8 -217 0
-395 3 -395 8 0 4 36 59 79 122 44 63 133 193 198 287 65 95 119 173 119 173
1 0 26 -35 55 -77z"/>
<path fill="#ff6965" stroke="none" d="M900 1663 c-5 -10 -49 -74 -96 -143
-48 -69 -132 -191 -187 -272 l-100 -148 -210 0 c-116 0 -208 2 -206 4 2 1 72
52 154 111 83 60 170 123 195 141 239 175 446 324 453 324 4 0 3 -8 -3 -17z"/>
<path fill="#ff6965" stroke="none" d="M1168 1623 c42 -32 88 -66 102 -75 29
-20 49 -35 360 -262 127 -93 233 -173 236 -178 3 -4 -84 -8 -193 -8 l-198 0
-52 78 c-29 42 -117 173 -197 290 -79 116 -142 212 -140 212 3 0 40 -26 82
-57z"/>
<path fill="#ff6965" stroke="none" d="M522 948 c10 -46 42 -202 72 -348 31
-146 56 -266 56 -267 0 -2 -64 -3 -142 -3 l-143 0 -39 93 c-21 50 -59 139 -83
197 -25 58 -63 148 -86 200 -22 52 -51 119 -64 149 -12 29 -23 55 -23 57 0 2
98 4 218 4 l218 0 16 -82z"/>
<path fill="#ff6965" stroke="none" d="M1416 1013 c-3 -10 -19 -85 -36 -168
-17 -82 -48 -231 -68 -330 l-37 -180 -278 -3 c-217 -2 -279 0 -282 10 -5 12
-53 240 -110 523 -14 66 -27 130 -30 143 l-5 22 425 0 c401 0 426 -1 421 -17z"/>
<path fill="#ff6965" stroke="none" d="M1910 1027 c0 -7 -77 -191 -130 -312
-29 -66 -58 -133 -64 -150 -6 -16 -31 -76 -56 -132 l-45 -103 -137 0 c-86 0
-138 4 -138 10 0 6 13 70 29 143 16 72 48 225 72 339 l44 208 213 0 c116 0
212 -2 212 -3z"/>
</g>
</svg>
